<svg xmlns="http://www.w3.org/2000/svg" width="280" height="72" viewBox="0 0 280 72" role="img" aria-labelledby="title desc">
  <title id="title">EduConnect</title>
  <desc id="desc">EduConnect wordmark with a connected open book logo.</desc>
  <defs>
    <linearGradient id="book" x1="10" x2="58" y1="14" y2="58" gradientUnits="userSpaceOnUse">
      <stop stop-color="#2563eb"/>
      <stop offset="1" stop-color="#14b8a6"/>
    </linearGradient>
    <linearGradient id="text" x1="76" x2="248" y1="22" y2="54" gradientUnits="userSpaceOnUse">
      <stop stop-color="#1d4ed8"/>
      <stop offset="1" stop-color="#0f766e"/>
    </linearGradient>
    <filter id="shadow" x="4" y="6" width="64" height="64" color-interpolation-filters="sRGB" filterUnits="userSpaceOnUse">
      <feDropShadow dx="0" dy="8" stdDeviation="6" flood-color="#0f172a" flood-opacity=".16"/>
    </filter>
  </defs>
  <g filter="url(#shadow)">
    <rect x="10" y="10" width="52" height="52" rx="14" fill="#eff6ff"/>
    <path fill="url(#book)" d="M18 26.1c0-2 1.6-3.6 3.6-3.6h7.5c3.1 0 5.2 1 6.3 2.4 1.1-1.4 3.2-2.4 6.3-2.4h7.5c2 0 3.6 1.6 3.6 3.6v24c0 .9-.7 1.6-1.6 1.6h-9.5c-3 0-5.1.7-6.3 2-1.2-1.3-3.3-2-6.3-2h-9.5c-.9 0-1.6-.7-1.6-1.6v-24Z"/>
    <path fill="#fff" d="M23.5 28.8h6c2 0 3.3.5 4.1 1.5v17c-1.1-.6-2.5-1-4.4-1h-5.7V28.8Zm17.1 0h6v17.5h-5.7c-1.9 0-3.3.4-4.4 1v-17c.8-1 2.1-1.5 4.1-1.5Z"/>
    <path fill="#0f172a" d="M35.4 16.6 51.2 24l-15.8 7.4L19.5 24l15.9-7.4Z"/>
    <path stroke="#0f172a" stroke-linecap="round" stroke-width="2" d="M47.4 25.9v7.3"/>
    <circle cx="47.4" cy="35.5" r="2.1" fill="#14b8a6"/>
  </g>
  <text x="78" y="43" fill="url(#text)" font-family="Inter, Segoe UI, Arial, sans-serif" font-size="28" font-weight="800" letter-spacing="0">EduConnect</text>
  <text x="80" y="58" fill="#64748b" font-family="Inter, Segoe UI, Arial, sans-serif" font-size="10" font-weight="700" letter-spacing="1.8">CLASS MANAGEMENT</text>
</svg>
