<svg xmlns="http://www.w3.org/2000/svg" viewBox="0 0 64 64" role="img" aria-labelledby="title desc">
  <title id="title">EduConnect logo icon</title>
  <desc id="desc">A connected open book forming the letter E.</desc>
  <defs>
    <linearGradient id="book" x1="12" x2="52" y1="14" y2="52" gradientUnits="userSpaceOnUse">
      <stop stop-color="#2563eb"/>
      <stop offset="1" stop-color="#14b8a6"/>
    </linearGradient>
    <linearGradient id="cap" x1="18" x2="47" y1="17" y2="31" gradientUnits="userSpaceOnUse">
      <stop stop-color="#0f172a"/>
      <stop offset="1" stop-color="#334155"/>
    </linearGradient>
  </defs>
  <rect width="64" height="64" rx="16" fill="#eff6ff"/>
  <path fill="url(#book)" d="M13 21.5c0-2.2 1.8-4 4-4h8.5c3.4 0 5.8 1.1 7 2.7 1.2-1.6 3.6-2.7 7-2.7H48c2.2 0 4 1.8 4 4v27c0 1-.8 1.8-1.8 1.8H39.5c-3.4 0-5.7.8-7 2.2-1.3-1.4-3.6-2.2-7-2.2H14.8c-1 0-1.8-.8-1.8-1.8v-27Z"/>
  <path fill="#fff" d="M19 24.5h6.8c2.2 0 3.7.6 4.6 1.7v19.1c-1.2-.7-2.8-1.1-4.9-1.1H19V24.5Zm19.2 0H45v19.7h-6.5c-2.1 0-3.7.4-4.9 1.1V26.2c.9-1.1 2.4-1.7 4.6-1.7Z"/>
  <path fill="url(#cap)" d="M32 10.8 49.8 19 32 27.2 14.2 19 32 10.8Z"/>
  <path stroke="#0f172a" stroke-linecap="round" stroke-width="2.4" d="M45.5 21.2v8.2"/>
  <circle cx="45.5" cy="32.1" r="2.4" fill="#14b8a6"/>
  <path stroke="#2563eb" stroke-linecap="round" stroke-width="2.4" d="M23 31.2h5.2M23 37h5.2M36 31.2h5.2M36 37h5.2"/>
</svg>
